<?xml version="1.0" standalone="no"?><!DOCTYPE svg PUBLIC "-//W3C//DTD SVG 1.1//EN" "http://www.w3.org/Graphics/SVG/1.1/DTD/svg11.dtd"><svg t="1492671940828" class="icon" style="" viewBox="0 0 1024 1024" version="1.1" xmlns="http://www.w3.org/2000/svg" p-id="6268" xmlns:xlink="http://www.w3.org/1999/xlink" width="32" height="32"><defs><style type="text/css"></style></defs><path d="M512 1024C229.2224 1024 0 794.7776 0 512 0 229.2224 229.2224 0 512 0 794.7776 0 1024 229.2224 1024 512 1024 794.7776 794.7776 1024 512 1024ZM512 96C282.2144 96 96 282.2656 96 512 96 619.4176 137.0624 717.056 203.9296 790.8864 264.192 761.7024 242.0736 785.9712 320.8704 753.5104 401.5616 720.384 420.6592 708.8128 420.6592 708.8128L421.4272 632.3712C421.4272 632.3712 391.2192 609.4336 381.8496 537.4976 362.9056 542.9248 356.6592 515.4816 355.584 498.0224 354.56 481.1264 344.6272 428.3904 367.6672 433.152 362.9568 397.9264 359.5776 366.1824 361.2672 349.3376 367.0016 290.304 424.3456 228.608 512.6144 224.1024 616.448 228.608 657.5616 290.2528 663.3472 349.2864 664.9856 366.1312 661.2992 397.9264 656.5888 433.0496 679.68 428.3392 669.6448 481.024 668.5184 497.92 667.4944 515.3792 661.0944 542.72 642.2528 537.344 632.832 609.2288 602.624 632.0128 602.624 632.0128L603.3408 708.0448C603.3408 708.0448 622.4384 718.848 703.0784 752.0256 781.9264 784.4864 759.808 761.6512 820.0192 790.8864 886.8864 717.056 928 619.4688 928 512 928 282.2656 741.7344 96 512 96Z" p-id="6269" fill="#8a8a8a"></path></svg>