<?xml version="1.0" standalone="no"?><!DOCTYPE svg PUBLIC "-//W3C//DTD SVG 1.1//EN" "http://www.w3.org/Graphics/SVG/1.1/DTD/svg11.dtd"><svg t="1493360538014" class="icon" style="" viewBox="0 0 1024 1024" version="1.1" xmlns="http://www.w3.org/2000/svg" p-id="2379" xmlns:xlink="http://www.w3.org/1999/xlink" width="16" height="16"><defs><style type="text/css"></style></defs><path d="M643.3024 775.0144c13.0048 0 23.6288-10.0864 23.6288-22.4256L666.9312 463.6672c0-12.3136-10.624-22.4256-23.6288-22.4256-13.056 0-23.6544 10.0864-23.6544 22.4256l0 288.9216C619.6224 764.9024 630.2464 775.0144 643.3024 775.0144z" p-id="2380"></path><path d="M512.0256 775.0144c13.056 0 23.6288-10.0864 23.6288-22.4256L535.6544 463.6672c0-12.3136-10.5728-22.4256-23.6288-22.4256-13.056 0-23.6544 10.0864-23.6544 22.4256l0 288.9216C488.3712 764.9024 498.9696 775.0144 512.0256 775.0144z" p-id="2381"></path><path d="M379.8528 775.0144c13.0048 0 23.6288-10.0864 23.6288-22.4256L403.4816 463.6672c0-12.3136-10.624-22.4256-23.6288-22.4256-13.056 0-23.6544 10.0864-23.6544 22.4256l0 288.9216C356.1728 764.9024 366.7968 775.0144 379.8528 775.0144z" p-id="2382"></path><path d="M808.3456 228.8128l-181.5808 0c1.28-6.4512 2.0736-12.9792 2.0736-19.7376C628.8384 150.1696 578.432 102.4 516.1728 102.4s-112.6656 47.7184-112.6656 106.624c0 6.7584 0.8448 13.3376 2.0736 19.7376L215.6544 228.7616C167.2448 228.7616 128 265.8816 128 311.7312c0 45.8496 39.2448 83.0208 87.6544 83.0208l6.9376 0 0 466.816c0 33.1776 28.416 60.032 63.4112 60.032L738.048 921.6c34.9952 0 63.3856-26.8544 63.3856-60.032L801.4336 394.752l6.912 0c48.4096 0 87.6544-37.1456 87.6544-82.9696C896 265.9328 856.8064 228.8128 808.3456 228.8128zM516.1728 136.576c42.2656 0 76.4928 32.4096 76.4928 72.448 0 6.8864-1.3568 13.44-3.2512 19.7376l-146.5088 0c-1.8944-6.272-3.3024-12.8512-3.3024-19.7376C439.6288 169.0112 473.9072 136.576 516.1728 136.576zM762.4704 853.76c0 16.3072-13.952 29.5168-31.1552 29.5168l-439.8336 0.1024c-16.256-1.2032-29.0304-13.3888-29.9008-28.9024L261.5808 394.752l500.8896 0C762.4704 394.752 762.4704 853.76 762.4704 853.76zM802.7904 353.92l-1.3568 0L222.592 353.92 221.184 353.92c-24.5504 0-44.5184-18.8416-44.5184-42.1632 0-23.296 19.968-42.1376 44.5184-42.1376l581.6064 0c24.6016 0 44.5184 18.8928 44.5184 42.1376C847.3088 335.0272 827.392 353.92 802.7904 353.92z" p-id="2383"></path></svg>