<?xml version="1.0" standalone="no"?><!DOCTYPE svg PUBLIC "-//W3C//DTD SVG 1.1//EN" "http://www.w3.org/Graphics/SVG/1.1/DTD/svg11.dtd"><svg t="1492066516470" class="icon" style="" viewBox="0 0 1024 1024" version="1.1" xmlns="http://www.w3.org/2000/svg" p-id="2777" xmlns:xlink="http://www.w3.org/1999/xlink" width="32" height="32"><defs><style type="text/css"></style></defs><path d="M953.856 283.968c0-16.384-13.248-29.76-29.632-29.76L924.224 254.08 248.704 254.08l0-158.72L248.704 75.456l0-19.84-19.84 0-39.68 0L89.984 55.616c-10.944 0-19.84 8.832-19.84 19.84l0 19.904c0 10.88 8.896 19.84 19.84 19.84l99.264 0L189.248 254.08l0 59.52 0 292.608 0 59.648 0 104.192 0 20.224c-24 18.112-39.68 46.592-39.68 78.912 0 54.784 44.416 99.2 99.2 99.2 54.784 0 99.264-44.352 99.264-99.2 0-14.144-3.072-27.52-8.384-39.68l257.408 0c-5.248 12.16-8.32 25.536-8.32 39.68 0 54.784 44.416 99.2 99.328 99.2 54.72 0 99.136-44.352 99.136-99.2 0-54.72-44.352-99.2-99.136-99.2-1.024 0-1.856 0.192-2.752 0.192l0-0.192L248.704 769.984l0-104.192 476.928 0 10.24 0 1.984 0 210.368-364.416c1.344-1.856 2.496-3.84 3.52-6.016l1.024-1.856-0.512-0.192C953.28 290.432 953.856 287.232 953.856 283.968zM688 829.504c21.76 0 39.488 17.728 39.488 39.68s-17.728 39.68-39.488 39.68c-21.888 0-39.744-17.728-39.744-39.68S666.112 829.504 688 829.504zM288.384 869.184c0 21.952-17.728 39.68-39.68 39.68-21.888 0-39.68-17.728-39.68-39.68s17.792-39.68 39.68-39.68C270.656 829.504 288.384 847.232 288.384 869.184z" p-id="2778" fill="#67676A"></path></svg>