<?xml version="1.0" standalone="no"?><!DOCTYPE svg PUBLIC "-//W3C//DTD SVG 1.1//EN" "http://www.w3.org/Graphics/SVG/1.1/DTD/svg11.dtd">
  <svg t="1492349705151" class="icon" style="" viewBox="0 0 1024 1024" version="1.1" xmlns="http://www.w3.org/2000/svg" p-id="5168" xmlns:xlink="http://www.w3.org/1999/xlink" width="32" height="32">
    <defs>
      <style type="text/css">
        #compass{
          fill: #2da1dc
        }
      </style>
    </defs>
    <path id="compass" d="M420.637688 421.234787l307.814598-127.381156L601.079316 601.674369l-307.814598 127.360689L420.637688 421.234787zM440.087669 458.773751l-87.12736 210.57595 210.56367-87.138616L440.087669 458.773751zM827.925834 828.510654c-50.266847 50.254567-109.609397 85.606727-172.645059 107.046015 0.066515-1.095961 0.328481-2.14485 0.328481-3.243881 0-11.222599-3.400446-21.659299-9.169847-30.398334 57.277518-19.853164 111.207801-52.188616 156.949588-97.943706 161.684426-161.656797 161.684426-423.782819 0-585.445756-161.671123-161.66396-423.798169-161.66396-585.454966 0-161.683403 161.662937-161.683403 423.789982 0 585.445756 89.847308 89.859587 210.694653 129.585357 328.114946 119.577423-0.470721 2.866281-0.890276 5.768377-0.890276 8.763594 0 9.31618 2.52552 17.946744 6.592139 25.663496-128.118959 11.720949-260.307607-31.394011-358.381273-129.466654-175.235047-175.22072-175.235047-459.328383 0-634.550127 175.219697-175.235047 459.322244-175.235047 634.555244 0C1003.150648 369.18227 1003.150648 653.28891 827.925834 828.510654z" p-id="5169">
    </path>
  </svg>