<?xml version="1.0" standalone="no"?><!DOCTYPE svg PUBLIC "-//W3C//DTD SVG 1.1//EN" "http://www.w3.org/Graphics/SVG/1.1/DTD/svg11.dtd"><svg t="1492350873235" class="icon" style="" viewBox="0 0 1024 1024" version="1.1" xmlns="http://www.w3.org/2000/svg" p-id="1010" xmlns:xlink="http://www.w3.org/1999/xlink" width="32" height="32"><defs><style type="text/css"></style></defs><path d="M512 104.581c224.662 0 407.419 182.813 407.419 407.419 0 224.662-182.756 407.419-407.419 407.419-224.662 0-407.419-182.756-407.419-407.419 0-224.662 182.756-407.419 407.419-407.419M512 64.869c-246.937 0-447.131 200.194-447.131 447.131 0 246.994 200.194 447.131 447.131 447.131 246.994 0 447.131-200.194 447.131-447.131 0-246.937-200.137-447.131-447.131-447.131v0z" p-id="1011" fill="#2da1dc"></path><path d="M720.294 374.187h-416.644c-10.969 0-19.856-8.887-19.856-19.856s8.887-19.856 19.856-19.856h416.644c11.025 0 19.912 8.887 19.912 19.856s-8.887 19.856-19.912 19.856z" p-id="1012" fill="#2da1dc"></path><path d="M720.294 531.856h-416.644c-10.912 0-19.856-8.887-19.856-19.856s8.887-19.856 19.856-19.856h416.644c11.025 0 19.912 8.887 19.912 19.856s-8.887 19.856-19.912 19.856z" p-id="1013" fill="#2da1dc"></path><path d="M720.294 689.525h-416.644c-10.969 0-19.856-8.831-19.856-19.912 0-10.969 8.887-19.913 19.856-19.913h416.644c11.025 0 19.912 8.887 19.912 19.913 0 11.081-8.887 19.912-19.912 19.912z" p-id="1014" fill="#2da1dc"></path></svg>